<svg id="Layer_1" data-name="Layer 1" xmlns="http://www.w3.org/2000/svg" viewBox="0 0 15.13 15.06"><defs><style>.cls-1{fill:#aeaeae;}</style></defs><title>alu-pattern2</title><path class="cls-1" d="M13.09,7.56a5.49,5.49,0,0,0-1.6-3.89L15.13,0h0L11.42,3.64a5.53,5.53,0,0,0-7.78,0L0,0H0L3.64,3.64a5.53,5.53,0,0,0,0,7.78L0,15.06H0l3.64-3.64a5.53,5.53,0,0,0,7.78,0l3.64,3.64h0l-3.57-3.61A5.49,5.49,0,0,0,13.09,7.56ZM10.53,10.5h0l.92.92a5.46,5.46,0,0,1-7.72,0l.92-.92h0l-.93.92a5.48,5.48,0,0,1,0-7.72l.93.92h0l-.92-.93a5.48,5.48,0,0,1,7.72,0l-.92.93h0l.93-.92a5.48,5.48,0,0,1,0,7.72Z"/><path class="cls-1" d="M8.19,6,7.57,7.51,7,6H6l.65,1.59L6,9.15H7l.62-1.54.62,1.54h.94L8.48,7.56,9.13,6ZM6.92,9.11H6.07l.62-1.53h.85ZM6.69,7.54,6.07,6h.85l.62,1.53ZM9.07,9.11H8.22L7.6,7.58h.82ZM8.42,7.54H7.57L8.19,6H9Z"/></svg>