<svg id="Layer_1" data-name="Layer 1" xmlns="http://www.w3.org/2000/svg" viewBox="0 0 742.64 543.68"><defs><style>.cls-1{opacity:0.05;}.cls-2{fill:none;stroke:#231f20;stroke-linecap:round;stroke-linejoin:round;stroke-width:2px;}</style></defs><title>icons2development</title><g class="cls-1"><path class="cls-2" d="M92.88,96h17.37a14.45,14.45,0,0,0,14.46-14.46h0a14.46,14.46,0,0,0-10-13.75A25.06,25.06,0,1,0,67.35,51.47a17.49,17.49,0,0,0-26.58,15,16.35,16.35,0,0,0,.13,2,14.46,14.46,0,0,0-8.33,13.09h0A14.46,14.46,0,0,0,47,96H69.87" transform="translate(-29.38 -27.06)"/><polygon class="cls-2" points="66.58 44.77 49.26 27.45 31.94 44.77 40.49 44.77 40.49 76.97 58.04 76.97 58.04 44.77 66.58 44.77"/></g><g class="cls-1"><path class="cls-2" d="M430.43,407.43h7.77A15.81,15.81,0,0,0,454,391.62h0a15.82,15.82,0,0,0-10.91-15,27.37,27.37,0,1,0-51.75-17.79,19.1,19.1,0,0,0-29,16.34,19.63,19.63,0,0,0,.13,2.18,15.81,15.81,0,0,0-9.09,14.29h0a15.8,15.8,0,0,0,15.8,15.81h12.14" transform="translate(-29.38 -27.06)"/><path class="cls-2" d="M382.83,397.71a6.17,6.17,0,0,0,6.17,6.17h29.36a6.17,6.17,0,0,0,6.17-6.17v11.57a6.17,6.17,0,0,1-6.17,6.17H389a6.17,6.17,0,0,1-6.17-6.17Z" transform="translate(-29.38 -27.06)"/><line class="cls-2" x1="382.16" y1="382.77" x2="387.51" y2="382.77"/><path class="cls-2" d="M382.83,386.13A6.17,6.17,0,0,0,389,392.3h29.36a6.17,6.17,0,0,0,6.17-6.17v11.58a6.17,6.17,0,0,1-6.17,6.17H389a6.17,6.17,0,0,1-6.17-6.17Z" transform="translate(-29.38 -27.06)"/><line class="cls-2" x1="382.16" y1="371.2" x2="387.51" y2="371.2"/><path class="cls-2" d="M382.83,374.56a6.17,6.17,0,0,0,6.17,6.17h29.36a6.17,6.17,0,0,0,6.17-6.17v11.57a6.17,6.17,0,0,1-6.17,6.17H389a6.17,6.17,0,0,1-6.17-6.17Z" transform="translate(-29.38 -27.06)"/><line class="cls-2" x1="382.16" y1="359.62" x2="387.51" y2="359.62"/><path class="cls-2" d="M418.36,368.39H389a6.17,6.17,0,0,0-6.17,6.17h0a6.17,6.17,0,0,0,6.17,6.17h29.36a6.17,6.17,0,0,0,6.17-6.17h0A6.17,6.17,0,0,0,418.36,368.39Z" transform="translate(-29.38 -27.06)"/></g><g class="cls-1"><rect class="cls-2" x="169.35" y="6.9" width="82.1" height="56.04" rx="4.28"/><line class="cls-2" x1="169.35" y1="56.53" x2="251.45" y2="56.53"/><line class="cls-2" x1="169.35" y1="12.84" x2="251.45" y2="12.84"/><rect class="cls-2" x="203.72" y="62.94" width="13.36" height="10.1"/><path class="cls-2" d="M254.87,100.09H224.68a3.8,3.8,0,0,0-3.8,3.8h37.79A3.8,3.8,0,0,0,254.87,100.09Z" transform="translate(-29.38 -27.06)"/><path class="cls-2" d="M220.64,51.89A11.81,11.81,0,1,0,232.45,63.7H220.64Z" transform="translate(-29.38 -27.06)"/><path class="cls-2" d="M224.08,48.44V60.25h11.81A11.81,11.81,0,0,0,224.08,48.44Z" transform="translate(-29.38 -27.06)"/><line class="cls-2" x1="215.94" y1="24.83" x2="242" y2="24.83"/><line class="cls-2" x1="215.94" y1="32.08" x2="242" y2="32.08"/><line class="cls-2" x1="215.94" y1="39.33" x2="242" y2="39.33"/><line class="cls-2" x1="215.94" y1="46.58" x2="242" y2="46.58"/></g><g class="cls-1"><rect class="cls-2" x="8.21" y="158.91" width="82.1" height="56.04" rx="4.28"/><line class="cls-2" x1="8.21" y1="208.54" x2="90.31" y2="208.54"/><line class="cls-2" x1="8.21" y1="164.85" x2="90.31" y2="164.85"/><rect class="cls-2" x="42.58" y="214.95" width="13.36" height="10.1"/><path class="cls-2" d="M93.74,252.1H63.55a3.8,3.8,0,0,0-3.8,3.8H97.54A3.8,3.8,0,0,0,93.74,252.1Z" transform="translate(-29.38 -27.06)"/><rect class="cls-2" x="43.09" y="177.03" width="12.34" height="9.33"/><path class="cls-2" d="M78.64,197.52a4.34,4.34,0,0,0-4.35,4.34v2.23H83v-2.23A4.34,4.34,0,0,0,78.64,197.52Z" transform="translate(-29.38 -27.06)"/><line class="cls-2" x1="49.26" y1="180.56" x2="49.26" y2="182.14"/><line class="cls-2" x1="49.27" y1="194.78" x2="49.27" y2="199.57"/><line class="cls-2" x1="47.19" y1="195.98" x2="51.34" y2="198.37"/><line class="cls-2" x1="47.19" y1="198.38" x2="51.34" y2="195.98"/><line class="cls-2" x1="39.94" y1="194.78" x2="39.94" y2="199.57"/><line class="cls-2" x1="37.86" y1="195.98" x2="42.01" y2="198.37"/><line class="cls-2" x1="37.86" y1="198.38" x2="42.01" y2="195.98"/><line class="cls-2" x1="30.61" y1="194.78" x2="30.61" y2="199.57"/><line class="cls-2" x1="28.53" y1="195.98" x2="32.68" y2="198.37"/><line class="cls-2" x1="28.53" y1="198.38" x2="32.68" y2="195.98"/><line class="cls-2" x1="58.59" y1="194.78" x2="58.59" y2="199.57"/><line class="cls-2" x1="60.67" y1="195.98" x2="56.52" y2="198.37"/><line class="cls-2" x1="60.67" y1="198.38" x2="56.52" y2="195.98"/><line class="cls-2" x1="67.92" y1="194.78" x2="67.92" y2="199.57"/><line class="cls-2" x1="70" y1="195.98" x2="65.85" y2="198.37"/><line class="cls-2" x1="70" y1="198.38" x2="65.85" y2="195.98"/><path class="cls-2" d="M98.41,218.48H58.86a5.75,5.75,0,1,0,0,11.5H98.41a5.75,5.75,0,0,0,0-11.5Z" transform="translate(-29.38 -27.06)"/></g><g class="cls-1"><rect class="cls-2" x="496.43" y="158.91" width="82.1" height="56.04" rx="4.28"/><line class="cls-2" x1="496.43" y1="208.54" x2="578.53" y2="208.54"/><line class="cls-2" x1="496.43" y1="164.85" x2="578.53" y2="164.85"/><rect class="cls-2" x="530.8" y="214.95" width="13.36" height="10.1"/><path class="cls-2" d="M582,252.1H551.77a3.81,3.81,0,0,0-3.81,3.8h37.8A3.8,3.8,0,0,0,582,252.1Z" transform="translate(-29.38 -27.06)"/><circle class="cls-2" cx="537.48" cy="183.06" r="9.53"/><polygon class="cls-2" points="542.28 183.06 534.52 179.19 534.52 186.93 542.28 183.06"/><path class="cls-2" d="M548.52,227.06a2.85,2.85,0,1,1-2.85-2.85A2.85,2.85,0,0,1,548.52,227.06Z" transform="translate(-29.38 -27.06)"/><line class="cls-2" x1="519.14" y1="200.01" x2="561.52" y2="200.01"/></g><g class="cls-1"><path class="cls-2" d="M737.24,48.12V32.68a4.62,4.62,0,0,0-4.62-4.62H693.55a4.62,4.62,0,0,0-4.62,4.62v72.49a4.62,4.62,0,0,0,4.62,4.62h39.07a4.62,4.62,0,0,0,4.62-4.62V74.36" transform="translate(-29.38 -27.06)"/><line class="cls-2" x1="659.55" y1="74.92" x2="707.86" y2="74.92"/><line class="cls-2" x1="677.85" y1="78.93" x2="689.57" y2="78.93"/><line class="cls-2" x1="659.55" y1="7.91" x2="707.86" y2="7.91"/><path class="cls-2" d="M699.15,76.23a14,14,0,0,0,1.19,2.88l-2.09,4.18,1.86,1.86L702,87l4.19-2.09A13.67,13.67,0,0,0,709,86.11l1.49,4.44h5.26l1.48-4.44a14,14,0,0,0,2.88-1.19L724.33,87l1.85-1.86L728,83.29,726,79.11a15.18,15.18,0,0,0,1.19-2.88l4.44-1.49V69.48L727.15,68A15.18,15.18,0,0,0,726,65.12L728,60.94l-1.86-1.86-1.85-1.86-4.19,2.09a14,14,0,0,0-2.88-1.19l-1.48-4.44h-5.26L709,58.12a13.67,13.67,0,0,0-2.87,1.19L702,57.22l-1.86,1.86-1.86,1.86,2.09,4.18A14,14,0,0,0,699.15,68l-4.44,1.48v5.26Z" transform="translate(-29.38 -27.06)"/><circle class="cls-2" cx="683.77" cy="45.06" r="9.75"/><path class="cls-2" d="M730.75,59.3a9.51,9.51,0,0,0,.46,2.13l-2,2.64,1,1.52,1.05,1.51,3.16-.91a10.3,10.3,0,0,0,1.84,1.18l.47,3.26,1.81.33,1.82.33L742,68.41a10.71,10.71,0,0,0,2.14-.46l2.64,2,1.51-1.06,1.52-1-.91-3.15a10.67,10.67,0,0,0,1.18-1.84l3.26-.47.33-1.82.33-1.82-2.89-1.58a9.6,9.6,0,0,0-.46-2.14l2-2.63-1-1.52-1.05-1.52-3.16.92a9.82,9.82,0,0,0-1.84-1.19l-.46-3.25-1.82-.33-1.82-.33L739.86,48a10.19,10.19,0,0,0-2.14.46l-2.63-2-1.52,1.05-1.52,1,.92,3.16a9.82,9.82,0,0,0-1.19,1.84l-3.25.47-.33,1.81-.34,1.82Z" transform="translate(-29.38 -27.06)"/><path class="cls-2" d="M734.2,57a6.85,6.85,0,1,1,5.52,8A6.86,6.86,0,0,1,734.2,57Z" transform="translate(-29.38 -27.06)"/></g><g class="cls-1"><rect class="cls-2" x="495.56" y="10.17" width="83.84" height="63.4"/><line class="cls-2" x1="495.56" y1="20.83" x2="579.4" y2="20.83"/><path class="cls-2" d="M594,42.2a.25.25,0,1,1-.24-.24A.25.25,0,0,1,594,42.2Z" transform="translate(-29.38 -27.06)"/><path class="cls-2" d="M599.17,42.2a.24.24,0,1,1-.24-.24A.25.25,0,0,1,599.17,42.2Z" transform="translate(-29.38 -27.06)"/><path class="cls-2" d="M604.32,42.2a.25.25,0,1,1-.49,0,.25.25,0,0,1,.49,0Z" transform="translate(-29.38 -27.06)"/><line class="cls-2" x1="550.6" y1="52.54" x2="570.98" y2="52.54"/><line class="cls-2" x1="503.98" y1="52.54" x2="524.36" y2="52.54"/><line class="cls-2" x1="534.21" y1="52.54" x2="543.33" y2="52.54"/><line class="cls-2" x1="503.98" y1="30.66" x2="515.87" y2="30.66"/><line class="cls-2" x1="565.04" y1="30.66" x2="570.98" y2="30.66"/><line class="cls-2" x1="525.19" y1="30.66" x2="556.52" y2="30.66"/><line class="cls-2" x1="503.98" y1="41.83" x2="507.58" y2="41.83"/><line class="cls-2" x1="560.09" y1="41.83" x2="570.98" y2="41.83"/><line class="cls-2" x1="543.17" y1="41.83" x2="555.44" y2="41.83"/><line class="cls-2" x1="513.91" y1="41.83" x2="533.76" y2="41.83"/><line class="cls-2" x1="565.45" y1="63.25" x2="570.98" y2="63.25"/><line class="cls-2" x1="503.98" y1="63.25" x2="517.4" y2="63.25"/><line class="cls-2" x1="551.87" y1="63.25" x2="558.22" y2="63.25"/><line class="cls-2" x1="523.83" y1="63.25" x2="545.95" y2="63.25"/></g><g class="cls-1"><path class="cls-2" d="M438.17,34.43,417,40.67,372.28,85.38a10.56,10.56,0,0,0,0,14.94h0a10.56,10.56,0,0,0,14.94,0l44.71-44.71Z" transform="translate(-29.38 -27.06)"/><line class="cls-2" x1="387.62" y1="13.61" x2="402.55" y2="28.55"/><line class="cls-2" x1="401.9" y1="9.4" x2="406.76" y2="14.26"/><line class="cls-2" x1="348.22" y1="53.01" x2="363.15" y2="67.95"/><rect class="cls-2" x="401.33" y="39.98" width="6.87" height="55.72" transform="translate(137.14 -293.39) rotate(45)"/><line class="cls-2" x1="342.9" y1="58.33" x2="357.84" y2="73.27"/><polyline class="cls-2" points="359.71 41.52 337.13 18.93 351.37 4.7 373.95 27.28"/><polyline class="cls-2" points="392.43 45.76 411.46 64.8 397.23 79.03 378.33 60.13"/><line class="cls-2" x1="355.25" y1="14.87" x2="358.39" y2="11.73"/><line class="cls-2" x1="361.19" y1="24.28" x2="366.07" y2="19.4"/><line class="cls-2" x1="391.89" y1="54.98" x2="396.77" y2="50.1"/><line class="cls-2" x1="401.3" y1="60.92" x2="404.44" y2="57.77"/></g><g class="cls-1"><path class="cls-2" d="M273.26,204.1a7,7,0,0,0-7-6.12H191.79v47.46a7,7,0,0,0,7,7h67.45a7,7,0,0,0,7-7V231.62" transform="translate(-29.38 -27.06)"/><polygon class="cls-2" points="162.41 170.92 162.41 162.33 180.29 162.33 190.4 170.92 162.41 170.92"/><path class="cls-2" d="M232.9,232.27a13.9,13.9,0,0,0,1.19,2.87L232,239.33l1.86,1.86,1.86,1.86L239.9,241a14.55,14.55,0,0,0,2.88,1.19l1.48,4.44h5.26l1.49-4.44a14.55,14.55,0,0,0,2.88-1.19l4.18,2.09,1.86-1.86,1.86-1.86-2.09-4.19a13.9,13.9,0,0,0,1.19-2.87l4.44-1.49v-5.26L260.89,224a14,14,0,0,0-1.19-2.88l2.09-4.19-1.86-1.86-1.86-1.85-4.18,2.08a15.18,15.18,0,0,0-2.88-1.19l-1.49-4.44h-5.26l-1.48,4.44a15.18,15.18,0,0,0-2.88,1.19l-4.18-2.08-1.86,1.85L232,217l2.09,4.19A14,14,0,0,0,232.9,224l-4.44,1.48v5.26Z" transform="translate(-29.38 -27.06)"/><circle class="cls-2" cx="217.51" cy="201.1" r="9.75"/><path class="cls-2" d="M264.49,215.33a10.71,10.71,0,0,0,.46,2.14l-2,2.63,1.06,1.52,1,1.52,3.15-.91a10.67,10.67,0,0,0,1.84,1.18l.47,3.26,1.82.33,1.82.33,1.58-2.89a9.6,9.6,0,0,0,2.14-.46l2.63,2,1.52-1,1.52-1.05-.92-3.16a9.82,9.82,0,0,0,1.19-1.84l3.25-.46.33-1.82.33-1.82-2.88-1.58a10.19,10.19,0,0,0-.46-2.14l2-2.63-1.05-1.52-1-1.52-3.16.92a9.82,9.82,0,0,0-1.84-1.19l-.47-3.25L277,201.5l-1.82-.33-1.59,2.89a9.72,9.72,0,0,0-2.14.46l-2.63-2-1.52,1-1.51,1.05.91,3.16a10.3,10.3,0,0,0-1.18,1.84l-3.26.47-.33,1.81-.33,1.82Z" transform="translate(-29.38 -27.06)"/><path class="cls-2" d="M268,213a6.85,6.85,0,1,1,5.51,8A6.85,6.85,0,0,1,268,213Z" transform="translate(-29.38 -27.06)"/></g><g class="cls-1"><path class="cls-2" d="M445.7,190.13H433.52A6.82,6.82,0,0,0,426.7,197v47L366,227.07a5.87,5.87,0,0,1-4.31-5.66v-13a5.88,5.88,0,0,1,5.88-5.88h10.18" transform="translate(-29.38 -27.06)"/><path class="cls-2" d="M426.7,244v4.74a3.73,3.73,0,0,1-3.73,3.73h-54.1" transform="translate(-29.38 -27.06)"/><circle class="cls-2" cx="348.67" cy="229.28" r="3.91"/><circle class="cls-2" cx="387.6" cy="229.28" r="3.91"/><path class="cls-2" d="M394.38,200.07,382.47,212a5.73,5.73,0,1,0,8.11,8.11l11.91-11.91Z" transform="translate(-29.38 -27.06)"/><path class="cls-2" d="M394.86,205.25l-9.17,9.18a1.73,1.73,0,1,0,2.45,2.44l9.17-9.17Z" transform="translate(-29.38 -27.06)"/><line class="cls-2" x1="362.65" y1="175.37" x2="370.76" y2="183.48"/><rect class="cls-2" x="406.58" y="181.02" width="2.85" height="27.07" transform="translate(227.69 -258.58) rotate(45)"/><path class="cls-2" d="M401.86,198.69l-6.17-6.18A8.23,8.23,0,0,0,385,182.12l5.47,5.47-1.32,4.4-4.4,1.32-5.47-5.47a8.22,8.22,0,0,0,10.4,10.69l3.12,3.13" transform="translate(-29.38 -27.06)"/><path class="cls-2" d="M402.81,211.68l.88.88A8.22,8.22,0,0,0,414.38,223l-5.46-5.47,1.32-4.39,4.4-1.33,5.46,5.47a8.21,8.21,0,0,0-10.39-10.69L406,202.81" transform="translate(-29.38 -27.06)"/></g><g class="cls-1"><path class="cls-2" d="M733.71,245.91h18.36a6,6,0,0,0,6-6V216" transform="translate(-29.38 -27.06)"/><path class="cls-2" d="M758.07,203.71v-3.39a6,6,0,0,0-6-6H677.92a6,6,0,0,0-6,6v39.59a6,6,0,0,0,6,6h22.35" transform="translate(-29.38 -27.06)"/><path class="cls-2" d="M729.92,181H700.08a4.72,4.72,0,0,0-4.73,4.72v8.64h39.29v-8.64A4.72,4.72,0,0,0,729.92,181Z" transform="translate(-29.38 -27.06)"/><path class="cls-2" d="M728.37,222.67l-21,21A10.1,10.1,0,1,0,721.67,258l21-21Z" transform="translate(-29.38 -27.06)"/><path class="cls-2" d="M729.22,231.8,713.06,248a3,3,0,1,0,4.31,4.31l16.16-16.17Z" transform="translate(-29.38 -27.06)"/><line class="cls-2" x1="694.85" y1="199.76" x2="709.14" y2="214.05"/><rect class="cls-2" x="749.87" y="189.11" width="5.03" height="47.69" transform="translate(341.57 -496.69) rotate(45)"/><line class="cls-2" x1="719.4" y1="193.06" x2="728.69" y2="193.06"/><line class="cls-2" x1="674.07" y1="193.06" x2="697.17" y2="193.06"/><line class="cls-2" x1="642.55" y1="193.06" x2="657.88" y2="193.06"/><rect class="cls-2" x="657.88" y="187.74" width="16.19" height="10.64"/><polyline class="cls-2" points="697.17 197.44 697.17 187.74 713.36 187.74 713.36 191.99"/><line class="cls-2" x1="706.97" y1="198.37" x2="701.75" y2="198.37"/></g><g class="cls-1"><path class="cls-2" d="M49.34,364.46h0a24,24,0,0,0,0,33.89l16.74,16.74a24,24,0,0,0,33.89,0h0a24,24,0,0,0,0-33.89L83.23,364.46A24,24,0,0,0,49.34,364.46Z" transform="translate(-29.38 -27.06)"/><path class="cls-2" d="M64,379.16a3.33,3.33,0,0,0,0,4.71L71.19,391a3.33,3.33,0,0,0,4.71-4.71l-7.15-7.15A3.33,3.33,0,0,0,64,379.16Z" transform="translate(-29.38 -27.06)"/><path class="cls-2" d="M64,379.16,49.16,364.28a18.39,18.39,0,0,1,0-26h0a18.41,18.41,0,0,1,26,0l15.24,15.25a16.44,16.44,0,0,0,23.25,0l1.29-1.29" transform="translate(-29.38 -27.06)"/><circle class="cls-2" cx="60.05" cy="377.5" r="2.75"/></g><g class="cls-1"><path class="cls-2" d="M207.23,394.53v7.55a4.27,4.27,0,0,0,4.28,4.27h73.54a4.27,4.27,0,0,0,4.28-4.27V354.59a4.27,4.27,0,0,0-4.28-4.27H258.52" transform="translate(-29.38 -27.06)"/><path class="cls-2" d="M231.52,350.32h-20a4.27,4.27,0,0,0-4.28,4.27v18.93" transform="translate(-29.38 -27.06)"/><line class="cls-2" x1="177.85" y1="372.89" x2="259.95" y2="372.89"/><line class="cls-2" x1="222.03" y1="329.21" x2="259.95" y2="329.21"/><line class="cls-2" x1="177.85" y1="329.21" x2="194.86" y2="329.21"/><rect class="cls-2" x="212.22" y="379.3" width="13.36" height="10.1"/><path class="cls-2" d="M263.38,416.45H233.19a3.81,3.81,0,0,0-3.81,3.8h37.8A3.8,3.8,0,0,0,263.38,416.45Z" transform="translate(-29.38 -27.06)"/><path class="cls-2" d="M215.6,363.31l-24.5,29.9a3.89,3.89,0,0,0,.26,5.21h0a3.89,3.89,0,0,0,5.21.26l29.9-24.5Z" transform="translate(-29.38 -27.06)"/><polygon class="cls-2" points="197.09 347.12 186.22 336.25 203.91 321.82 211.53 329.43 197.09 347.12"/><path class="cls-2" d="M233.35,349.14a8.74,8.74,0,0,1,4.34-5.89,15.58,15.58,0,0,1,7.25-1.88c1.94-.08,3.88.06,5.82-.08a10.87,10.87,0,0,0,5.49-1.66,5.72,5.72,0,0,0,2.63-4.9,7.22,7.22,0,0,1,.56,4.91,14.22,14.22,0,0,1-2,4.59,29,29,0,0,1-16.72,12.5" transform="translate(-29.38 -27.06)"/><line class="cls-2" x1="191.08" y1="332.28" x2="201.01" y2="342.21"/><rect class="cls-2" x="230.1" y="335.67" width="23.26" height="10.37" rx="2.52"/><rect class="cls-2" x="202.97" y="350.96" width="50.39" height="15.64" rx="3.78"/><line class="cls-2" x1="224.03" y1="335.67" x2="214.66" y2="335.67"/><line class="cls-2" x1="224.03" y1="340.86" x2="214.66" y2="340.86"/><line class="cls-2" x1="224.03" y1="346.04" x2="214.66" y2="346.04"/></g><g class="cls-1"><polyline class="cls-2" points="523.19 375.47 490.94 375.47 490.94 312.07 574.78 312.07 574.78 332.92"/><line class="cls-2" x1="541.86" y1="375.47" x2="533.37" y2="375.47"/><polyline class="cls-2" points="574.78 359.91 574.78 375.47 550.83 375.47"/><line class="cls-2" x1="574.78" y1="334.06" x2="574.78" y2="347.88"/><line class="cls-2" x1="490.94" y1="322.73" x2="574.78" y2="322.73"/><path class="cls-2" d="M589.41,344.1a.25.25,0,1,1-.24-.24A.25.25,0,0,1,589.41,344.1Z" transform="translate(-29.38 -27.06)"/><path class="cls-2" d="M594.55,344.1a.24.24,0,1,1-.24-.24A.25.25,0,0,1,594.55,344.1Z" transform="translate(-29.38 -27.06)"/><path class="cls-2" d="M599.69,344.1a.24.24,0,0,1-.24.25.25.25,0,0,1,0-.49A.24.24,0,0,1,599.69,344.1Z" transform="translate(-29.38 -27.06)"/><path class="cls-2" d="M539.4,376.13a13,13,0,0,0,1.06,2.56l-1.86,3.73,1.66,1.66,1.65,1.65,3.73-1.86a12.87,12.87,0,0,0,2.57,1.06l1.32,4h4.68l1.33-4a12.79,12.79,0,0,0,2.56-1.06l3.73,1.86,1.66-1.65,1.65-1.66-1.86-3.73a13,13,0,0,0,1.06-2.56l4-1.33v-4.68l-4-1.33a13,13,0,0,0-1.06-2.56l1.86-3.73-1.65-1.66-1.66-1.65-3.73,1.86a12.79,12.79,0,0,0-2.56-1.06l-1.33-4h-4.68l-1.32,4a12.87,12.87,0,0,0-2.57,1.06l-3.73-1.86-1.65,1.65-1.66,1.66,1.86,3.73a13,13,0,0,0-1.06,2.56l-4,1.33v4.68Z" transform="translate(-29.38 -27.06)"/><circle class="cls-2" cx="551.87" cy="372.46" r="8.68" transform="translate(-141.56 297.14) rotate(-29.86)"/><path class="cls-2" d="M577.25,412.68a11.27,11.27,0,0,0,2.62-11.48l18.87-18.87a11.05,11.05,0,0,0,14-14.39l-7.35,7.36-5.92-1.78-1.78-5.92,7.36-7.35a11.05,11.05,0,0,0-14.39,14L571.77,393.1a11.06,11.06,0,0,0-14,14.39l7.36-7.36,5.92,1.78,1.78,5.92-7.36,7.36A11.28,11.28,0,0,0,577.25,412.68Z" transform="translate(-29.38 -27.06)"/></g><g class="cls-1"><path class="cls-2" d="M699.11,403.09a33.9,33.9,0,1,1,53.45-38.79" transform="translate(-29.38 -27.06)"/><path class="cls-2" d="M754.32,369.68a33.94,33.94,0,0,1-33,41.7,33.67,33.67,0,0,1-18.58-5.54" transform="translate(-29.38 -27.06)"/><path class="cls-2" d="M740.06,381.79c-1,12.84-7,23.74-15.34,29.43" transform="translate(-29.38 -27.06)"/><path class="cls-2" d="M723.77,343.68c9.27,5.76,15.81,17.81,16.41,31.93" transform="translate(-29.38 -27.06)"/><path class="cls-2" d="M707.27,398.7a46.16,46.16,0,0,1-4.84-20.94c0-15,6.73-28,16.46-34.08" transform="translate(-29.38 -27.06)"/><path class="cls-2" d="M717.94,411.22a31.42,31.42,0,0,1-8.39-8.63" transform="translate(-29.38 -27.06)"/><path class="cls-2" d="M748.35,357.05a39.34,39.34,0,0,1-10.51,5.68,47.36,47.36,0,0,1-16.2,2.79h-.31a46.92,46.92,0,0,1-16.44-3,38.58,38.58,0,0,1-10.35-5.78" transform="translate(-29.38 -27.06)"/><path class="cls-2" d="M727.17,389.77A45.9,45.9,0,0,1,738,392.31a39.08,39.08,0,0,1,10.35,5.62" transform="translate(-29.38 -27.06)"/><path class="cls-2" d="M694.53,398.24a38.78,38.78,0,0,1,10.2-5.72,47,47,0,0,1,16.6-3.06" transform="translate(-29.38 -27.06)"/><line class="cls-2" x1="691.95" y1="368.75" x2="691.95" y2="384.33"/><line class="cls-2" x1="691.95" y1="316.54" x2="691.95" y2="362.41"/><line class="cls-2" x1="714.98" y1="350.44" x2="725.84" y2="350.44"/><polyline class="cls-2" points="658.06 350.44 673.05 350.44 691.95 350.44 708.51 350.44"/><path class="cls-2" d="M743.65,351.74c10-5,17.35-6.91,19.17-4.41,3.27,4.51-12.58,21.61-35.42,38.2s-44,26.38-47.28,21.88c-1.51-2.09,1.07-6.87,6.53-13" transform="translate(-29.38 -27.06)"/></g><g class="cls-1"><path class="cls-2" d="M119.1,508.61H77a7.81,7.81,0,0,0-7.8,7.81v28a7.8,7.8,0,0,0,7.8,7.8H95.86l14.91,8.46-2.69-8.46h11a7.8,7.8,0,0,0,7.8-7.8v-28A7.81,7.81,0,0,0,119.1,508.61Z" transform="translate(-29.38 -27.06)"/><path class="cls-2" d="M64.53,537.2H61.42l-14.9,8.46,2.68-8.46h-11a7.8,7.8,0,0,1-7.8-7.8v-28a7.8,7.8,0,0,1,7.8-7.8H80.3a7.8,7.8,0,0,1,7.8,7.8v7.18" transform="translate(-29.38 -27.06)"/><line class="cls-2" x1="64.31" y1="492.59" x2="85.55" y2="492.59"/><line class="cls-2" x1="51.78" y1="492.59" x2="57.31" y2="492.59"/><line class="cls-2" x1="78.73" y1="503.38" x2="85.55" y2="503.38"/><line class="cls-2" x1="51.78" y1="503.38" x2="71.48" y2="503.38"/><line class="cls-2" x1="72.54" y1="514.17" x2="85.55" y2="514.17"/><line class="cls-2" x1="51.78" y1="514.17" x2="64.72" y2="514.17"/><line class="cls-2" x1="34.21" y1="500.26" x2="12.98" y2="500.26"/><line class="cls-2" x1="19.8" y1="489.47" x2="12.98" y2="489.47"/><line class="cls-2" x1="35.89" y1="489.47" x2="27.05" y2="489.47"/><line class="cls-2" x1="25.99" y1="478.68" x2="12.98" y2="478.68"/><line class="cls-2" x1="42.24" y1="478.68" x2="33.81" y2="478.68"/></g><g class="cls-1"><path class="cls-2" d="M233.22,532.54,220,545.8a6.39,6.39,0,1,0,9,9l13.26-13.26Z" transform="translate(-29.38 -27.06)"/><path class="cls-2" d="M233.76,538.31l-10.21,10.21a1.92,1.92,0,0,0,2.72,2.72L236.48,541Z" transform="translate(-29.38 -27.06)"/><line class="cls-2" x1="201.23" y1="508.1" x2="210.25" y2="517.13"/><rect class="cls-2" x="246.8" y="511.33" width="3.18" height="30.13" transform="translate(415.59 -48.52) rotate(45)"/><path class="cls-2" d="M241.54,531l-6.86-6.87a9.16,9.16,0,0,0-11.91-11.57l6.09,6.09-1.47,4.89-4.9,1.48-6.08-6.09A9.14,9.14,0,0,0,228,530.83l3.47,3.48" transform="translate(-29.38 -27.06)"/><path class="cls-2" d="M242.6,545.46l1,1A9.15,9.15,0,0,0,255.49,558l-6.09-6.09,1.47-4.89,4.9-1.47,6.08,6.08a9.14,9.14,0,0,0-11.56-11.9l-4.15-4.15" transform="translate(-29.38 -27.06)"/><polygon class="cls-2" points="255.92 494.71 210.4 457.49 164.87 494.71 176.32 494.71 176.32 542.68 244.48 542.68 244.48 494.71 255.92 494.71"/></g><g class="cls-1"><circle class="cls-2" cx="385.87" cy="488.51" r="28.2"/><path class="cls-2" d="M394.55,506.63a22.54,22.54,0,0,1,20.7-13.6" transform="translate(-29.38 -27.06)"/><path class="cls-2" d="M392.71,515.57a22.72,22.72,0,0,1,.43-4.4" transform="translate(-29.38 -27.06)"/><path class="cls-2" d="M387.58,536.76l-22.33,22.33a4.57,4.57,0,1,0,6.47,6.47l22.33-22.32Z" transform="translate(-29.38 -27.06)"/><line class="cls-2" x1="354.96" y1="512.94" x2="361.44" y2="519.42"/><line class="cls-2" x1="361.44" y1="512.94" x2="365.93" y2="508.45"/><path class="cls-2" d="M411.93,504.29l3.32,18.22,3.32-18.22a3.38,3.38,0,0,0-3.32-4h0A3.37,3.37,0,0,0,411.93,504.29Z" transform="translate(-29.38 -27.06)"/><circle class="cls-2" cx="385.87" cy="501.81" r="2.33"/></g><g class="cls-1"><path class="cls-2" d="M582.17,486.21H524.72a7.06,7.06,0,0,0-7.06,7.06V508.8a7.06,7.06,0,0,0,7.06,7.06h57.45Z" transform="translate(-29.38 -27.06)"/><rect class="cls-2" x="552.79" y="464.69" width="16.37" height="18.57"/><line class="cls-2" x1="560.97" y1="470.04" x2="560.97" y2="471.25"/><line class="cls-2" x1="560.97" y1="476.71" x2="560.97" y2="477.92"/><line class="cls-2" x1="545.46" y1="473.98" x2="499.36" y2="473.98"/><rect class="cls-2" x="488.28" y="500.18" width="80.88" height="24.6"/><path class="cls-2" d="M588.47,539.53a3.43,3.43,0,1,1-3.42-3.42A3.42,3.42,0,0,1,588.47,539.53Z" transform="translate(-29.38 -27.06)"/><line class="cls-2" x1="496.51" y1="512.48" x2="505.06" y2="512.48"/><line class="cls-2" x1="514.26" y1="512.48" x2="522.82" y2="512.48"/><circle class="cls-2" cx="528.72" cy="536.83" r="4.18"/><line class="cls-2" x1="528.72" y1="532.65" x2="528.72" y2="524.77"/><line class="cls-2" x1="524.54" y1="536.83" x2="488.28" y2="536.83"/><line class="cls-2" x1="532.9" y1="536.83" x2="569.16" y2="536.83"/></g><g class="cls-1"><polygon class="cls-2" points="693.71 462.46 651.32 462.46 651.32 537.71 705.06 537.71 705.06 473.81 693.71 462.46"/><polygon class="cls-2" points="705.06 473.81 693.71 473.81 693.71 462.46 705.06 473.81"/><polyline class="cls-2" points="667.22 483.37 667.22 485.03 659.75 485.03 659.75 477.56 667.22 477.56 667.22 479.4"/><line class="cls-2" x1="673.59" y1="481.29" x2="696.62" y2="481.29"/><polyline class="cls-2" points="661.6 479.96 664.13 482.49 670.63 475.99"/><polyline class="cls-2" points="667.22 502.94 667.22 504.6 659.75 504.6 659.75 497.13 667.22 497.13 667.22 498.98"/><line class="cls-2" x1="673.59" y1="500.87" x2="696.62" y2="500.87"/><polyline class="cls-2" points="661.6 499.53 664.13 502.06 670.63 495.56"/><polyline class="cls-2" points="667.22 522.51 667.22 524.17 659.75 524.17 659.75 516.7 667.22 516.7 667.22 518.55"/><line class="cls-2" x1="673.59" y1="520.44" x2="696.62" y2="520.44"/><polyline class="cls-2" points="661.6 519.1 664.13 521.64 670.63 515.14"/><path class="cls-2" d="M753.72,489.51l-8.53,15.66v51.06a8.53,8.53,0,0,0,8.53,8.53h0a8.53,8.53,0,0,0,8.53-8.53V505.17Z" transform="translate(-29.38 -27.06)"/><line class="cls-2" x1="715.81" y1="478.11" x2="732.87" y2="478.11"/><line class="cls-2" x1="721.57" y1="467.55" x2="727.11" y2="467.55"/><line class="cls-2" x1="715.81" y1="523.11" x2="732.87" y2="523.11"/><rect class="cls-2" x="721.57" y="478.11" width="5.55" height="45"/><line class="cls-2" x1="715.81" y1="529.18" x2="732.87" y2="529.18"/></g></svg>