<svg id="Layer_1" data-name="Layer 1" xmlns="http://www.w3.org/2000/svg" viewBox="0 0 630.88 461.95"><defs><style>.cls-1{fill:none;stroke:#f9f9f9;stroke-linecap:round;stroke-linejoin:round;stroke-width:2px;}</style></defs><title>icons1</title><path class="cls-1" d="M138.63,127.7h14.74a12.29,12.29,0,0,0,12.29-12.29h0a12.28,12.28,0,0,0-8.48-11.67A21.28,21.28,0,1,0,117,89.91a14.84,14.84,0,0,0-22.57,12.7,13.45,13.45,0,0,0,.11,1.69,12.28,12.28,0,0,0-7.07,11.11h0A12.28,12.28,0,0,0,99.7,127.7h19.39" transform="translate(-84.56 -69.03)"/><polygon class="cls-1" points="56.69 38.17 41.98 23.46 27.27 38.17 34.53 38.17 34.53 65.51 49.43 65.51 49.43 38.17 56.69 38.17"/><path class="cls-1" d="M425.25,392.16h6.59a13.42,13.42,0,0,0,13.42-13.42h0A13.42,13.42,0,0,0,436,366a23,23,0,0,0,1.51-8.23,23.24,23.24,0,0,0-45.45-6.87,16.21,16.21,0,0,0-24.54,15.72,13.41,13.41,0,0,0-7.72,12.14h0a13.41,13.41,0,0,0,13.41,13.42h10.31" transform="translate(-84.56 -69.03)"/><path class="cls-1" d="M384.82,383.9a5.24,5.24,0,0,0,5.24,5.24H415a5.23,5.23,0,0,0,5.23-5.24v9.83A5.24,5.24,0,0,1,415,399H390.06a5.25,5.25,0,0,1-5.24-5.24Z" transform="translate(-84.56 -69.03)"/><line class="cls-1" x1="324.64" y1="325.17" x2="329.19" y2="325.17"/><path class="cls-1" d="M384.82,374.08a5.24,5.24,0,0,0,5.24,5.23H415a5.23,5.23,0,0,0,5.23-5.23v9.82a5.23,5.23,0,0,1-5.23,5.24H390.06a5.24,5.24,0,0,1-5.24-5.24Z" transform="translate(-84.56 -69.03)"/><line class="cls-1" x1="324.64" y1="315.34" x2="329.19" y2="315.34"/><path class="cls-1" d="M384.82,364.25a5.25,5.25,0,0,0,5.24,5.24H415a5.24,5.24,0,0,0,5.23-5.24v9.83a5.23,5.23,0,0,1-5.23,5.23H390.06a5.24,5.24,0,0,1-5.24-5.23Z" transform="translate(-84.56 -69.03)"/><line class="cls-1" x1="324.64" y1="305.51" x2="329.19" y2="305.51"/><path class="cls-1" d="M415,359H390.06a5.24,5.24,0,0,0-5.24,5.24h0a5.25,5.25,0,0,0,5.24,5.24H415a5.24,5.24,0,0,0,5.23-5.24h0A5.23,5.23,0,0,0,415,359Z" transform="translate(-84.56 -69.03)"/><rect class="cls-1" x="143.95" y="6.01" width="69.71" height="47.58" rx="3.63"/><line class="cls-1" x1="143.95" y1="48.15" x2="213.66" y2="48.15"/><line class="cls-1" x1="143.95" y1="11.06" x2="213.66" y2="11.06"/><rect class="cls-1" x="173.13" y="53.59" width="11.34" height="8.58"/><path class="cls-1" d="M276.18,131.19H250.54a3.23,3.23,0,0,0-3.23,3.23H279.4A3.23,3.23,0,0,0,276.18,131.19Z" transform="translate(-84.56 -69.03)"/><path class="cls-1" d="M247.11,90.26a10,10,0,1,0,10,10h-10Z" transform="translate(-84.56 -69.03)"/><path class="cls-1" d="M250,87.34v10h10A10,10,0,0,0,250,87.34Z" transform="translate(-84.56 -69.03)"/><line class="cls-1" x1="183.5" y1="21.23" x2="205.63" y2="21.23"/><line class="cls-1" x1="183.5" y1="27.39" x2="205.63" y2="27.39"/><line class="cls-1" x1="183.5" y1="33.54" x2="205.63" y2="33.54"/><line class="cls-1" x1="183.5" y1="39.7" x2="205.63" y2="39.7"/><rect class="cls-1" x="7.12" y="135.08" width="69.71" height="47.58" rx="3.63"/><line class="cls-1" x1="7.12" y1="177.22" x2="76.84" y2="177.22"/><line class="cls-1" x1="7.12" y1="140.13" x2="76.84" y2="140.13"/><rect class="cls-1" x="36.31" y="182.66" width="11.34" height="8.58"/><path class="cls-1" d="M139.36,260.27H113.72a3.23,3.23,0,0,0-3.23,3.22h32.09A3.22,3.22,0,0,0,139.36,260.27Z" transform="translate(-84.56 -69.03)"/><rect class="cls-1" x="36.74" y="150.47" width="10.48" height="7.93"/><path class="cls-1" d="M126.54,213.92a3.69,3.69,0,0,0-3.69,3.69v1.89h7.38v-1.89A3.69,3.69,0,0,0,126.54,213.92Z" transform="translate(-84.56 -69.03)"/><line class="cls-1" x1="41.98" y1="153.47" x2="41.98" y2="154.81"/><line class="cls-1" x1="41.98" y1="165.54" x2="41.98" y2="169.61"/><line class="cls-1" x1="40.22" y1="166.56" x2="43.74" y2="168.59"/><line class="cls-1" x1="40.22" y1="168.6" x2="43.74" y2="166.56"/><line class="cls-1" x1="34.06" y1="165.54" x2="34.06" y2="169.61"/><line class="cls-1" x1="32.3" y1="166.56" x2="35.82" y2="168.59"/><line class="cls-1" x1="32.3" y1="168.6" x2="35.82" y2="166.56"/><line class="cls-1" x1="26.14" y1="165.54" x2="26.14" y2="169.61"/><line class="cls-1" x1="24.38" y1="166.56" x2="27.9" y2="168.59"/><line class="cls-1" x1="24.38" y1="168.6" x2="27.9" y2="166.56"/><line class="cls-1" x1="49.9" y1="165.54" x2="49.9" y2="169.61"/><line class="cls-1" x1="51.67" y1="166.56" x2="48.15" y2="168.59"/><line class="cls-1" x1="51.67" y1="168.6" x2="48.15" y2="166.56"/><line class="cls-1" x1="57.82" y1="165.54" x2="57.82" y2="169.61"/><line class="cls-1" x1="59.59" y1="166.56" x2="56.07" y2="168.59"/><line class="cls-1" x1="59.59" y1="168.6" x2="56.07" y2="166.56"/><path class="cls-1" d="M143.32,231.71H109.75a4.89,4.89,0,0,0,0,9.78h33.57a4.89,4.89,0,1,0,0-9.78Z" transform="translate(-84.56 -69.03)"/><rect class="cls-1" x="421.68" y="135.08" width="69.71" height="47.58" rx="3.63"/><line class="cls-1" x1="421.68" y1="177.22" x2="491.39" y2="177.22"/><line class="cls-1" x1="421.68" y1="140.13" x2="491.39" y2="140.13"/><rect class="cls-1" x="450.86" y="182.66" width="11.34" height="8.58"/><path class="cls-1" d="M553.91,260.27H528.27a3.23,3.23,0,0,0-3.23,3.22h32.09A3.22,3.22,0,0,0,553.91,260.27Z" transform="translate(-84.56 -69.03)"/><circle class="cls-1" cx="456.53" cy="155.59" r="8.09"/><polygon class="cls-1" points="460.61 155.59 454.02 152.31 454.02 158.88 460.61 155.59"/><path class="cls-1" d="M525.52,239a2.42,2.42,0,1,1-2.42-2.42A2.43,2.43,0,0,1,525.52,239Z" transform="translate(-84.56 -69.03)"/><line class="cls-1" x1="440.96" y1="169.98" x2="476.94" y2="169.98"/><path class="cls-1" d="M685.76,87.07V74A3.91,3.91,0,0,0,681.84,70H648.66A3.91,3.91,0,0,0,644.74,74V135.5a3.92,3.92,0,0,0,3.92,3.93h33.18a3.92,3.92,0,0,0,3.92-3.93V109.34" transform="translate(-84.56 -69.03)"/><line class="cls-1" x1="560.18" y1="63.76" x2="601.21" y2="63.76"/><line class="cls-1" x1="575.72" y1="67.17" x2="585.67" y2="67.17"/><line class="cls-1" x1="560.18" y1="6.87" x2="601.21" y2="6.87"/><path class="cls-1" d="M653.42,110.93a11.94,11.94,0,0,0,1,2.44l-1.78,3.56,1.58,1.58,1.58,1.58,3.56-1.78a11.94,11.94,0,0,0,2.44,1l1.26,3.77h4.47l1.26-3.77a12.42,12.42,0,0,0,2.44-1l3.55,1.78,1.58-1.58,1.58-1.58-1.77-3.56a11.94,11.94,0,0,0,1-2.44l3.77-1.26v-4.46l-3.77-1.27a12.42,12.42,0,0,0-1-2.44L678,98l-1.58-1.58-1.58-1.58-3.55,1.77a12.42,12.42,0,0,0-2.44-1l-1.26-3.77h-4.47l-1.26,3.77a11.94,11.94,0,0,0-2.44,1l-3.56-1.77-1.58,1.58L652.65,98l1.78,3.55a12.42,12.42,0,0,0-1,2.44l-3.77,1.27v4.46Z" transform="translate(-84.56 -69.03)"/><circle class="cls-1" cx="580.75" cy="38.41" r="8.28"/><path class="cls-1" d="M680.25,96.55a7.86,7.86,0,0,0,.39,1.82L679,100.6l.89,1.29.89,1.29,2.68-.77a9,9,0,0,0,1.56,1l.4,2.77,1.54.28,1.55.28,1.34-2.45a9.06,9.06,0,0,0,1.82-.39l2.23,1.67,1.29-.89,1.29-.89-.78-2.69a8.18,8.18,0,0,0,1-1.56l2.76-.39.29-1.55.28-1.54-2.45-1.35a9.11,9.11,0,0,0-.39-1.81l1.67-2.24L698,89.37l-.9-1.29-2.68.78a8.13,8.13,0,0,0-1.56-1l-.4-2.77-1.54-.28-1.54-.28L688,87a8.46,8.46,0,0,0-1.81.39l-2.24-1.67-1.29.89-1.29.89.78,2.68a8.45,8.45,0,0,0-1,1.56l-2.77.4-.28,1.55-.28,1.54Z" transform="translate(-84.56 -69.03)"/><path class="cls-1" d="M683.18,94.59a5.81,5.81,0,1,1,4.68,6.76A5.82,5.82,0,0,1,683.18,94.59Z" transform="translate(-84.56 -69.03)"/><rect class="cls-1" x="420.94" y="8.78" width="71.19" height="53.84"/><line class="cls-1" x1="420.94" y1="17.83" x2="492.12" y2="17.83"/><path class="cls-1" d="M564.16,82a.21.21,0,0,1-.21.21.2.2,0,0,1-.2-.21.2.2,0,0,1,.2-.2A.2.2,0,0,1,564.16,82Z" transform="translate(-84.56 -69.03)"/><path class="cls-1" d="M568.53,82a.21.21,0,1,1-.21-.2A.21.21,0,0,1,568.53,82Z" transform="translate(-84.56 -69.03)"/><path class="cls-1" d="M572.89,82a.2.2,0,0,1-.2.21.21.21,0,0,1-.21-.21.2.2,0,0,1,.21-.2A.2.2,0,0,1,572.89,82Z" transform="translate(-84.56 -69.03)"/><line class="cls-1" x1="467.67" y1="44.76" x2="484.98" y2="44.76"/><line class="cls-1" x1="428.09" y1="44.76" x2="445.39" y2="44.76"/><line class="cls-1" x1="453.75" y1="44.76" x2="461.5" y2="44.76"/><line class="cls-1" x1="428.09" y1="26.19" x2="438.18" y2="26.19"/><line class="cls-1" x1="479.93" y1="26.19" x2="484.98" y2="26.19"/><line class="cls-1" x1="446.09" y1="26.19" x2="472.7" y2="26.19"/><line class="cls-1" x1="428.09" y1="35.67" x2="431.14" y2="35.67"/><line class="cls-1" x1="475.73" y1="35.67" x2="484.98" y2="35.67"/><line class="cls-1" x1="461.36" y1="35.67" x2="471.78" y2="35.67"/><line class="cls-1" x1="436.51" y1="35.67" x2="453.37" y2="35.67"/><line class="cls-1" x1="480.28" y1="53.86" x2="484.98" y2="53.86"/><line class="cls-1" x1="428.09" y1="53.86" x2="439.48" y2="53.86"/><line class="cls-1" x1="468.75" y1="53.86" x2="474.14" y2="53.86"/><line class="cls-1" x1="444.94" y1="53.86" x2="463.72" y2="53.86"/><path class="cls-1" d="M431.82,75.44l-18,5.3-38,38a9,9,0,0,0,0,12.68h0a9,9,0,0,0,12.68,0l38-38Z" transform="translate(-84.56 -69.03)"/><line class="cls-1" x1="329.28" y1="11.71" x2="341.96" y2="24.39"/><line class="cls-1" x1="341.41" y1="8.14" x2="345.54" y2="12.26"/><line class="cls-1" x1="295.82" y1="45.16" x2="308.51" y2="57.85"/><rect class="cls-1" x="400.53" y="80.15" width="5.83" height="47.31" transform="translate(107.01 -323.9) rotate(45)"/><line class="cls-1" x1="291.31" y1="49.68" x2="303.99" y2="62.36"/><polyline class="cls-1" points="305.59 35.4 286.41 16.23 298.5 4.14 317.67 23.32"/><polyline class="cls-1" points="333.36 39.01 349.53 55.17 337.44 67.26 321.39 51.21"/><line class="cls-1" x1="301.79" y1="12.78" x2="304.46" y2="10.11"/><line class="cls-1" x1="306.84" y1="20.76" x2="310.98" y2="16.62"/><line class="cls-1" x1="332.91" y1="46.83" x2="337.05" y2="42.69"/><line class="cls-1" x1="340.9" y1="51.88" x2="343.56" y2="49.21"/><path class="cls-1" d="M291.79,219.51a6,6,0,0,0-5.93-5.2H222.61v40.3a6,6,0,0,0,6,6h57.27a6,6,0,0,0,6-6V242.88" transform="translate(-84.56 -69.03)"/><polygon class="cls-1" points="138.06 145.28 138.06 137.99 153.23 137.99 161.82 145.28 138.06 145.28"/><path class="cls-1" d="M257.52,243.42a12.26,12.26,0,0,0,1,2.45l-1.78,3.55,1.58,1.58,1.58,1.58,3.56-1.77a11.94,11.94,0,0,0,2.44,1l1.26,3.77h4.47l1.26-3.77a12.42,12.42,0,0,0,2.44-1l3.55,1.77,1.58-1.58,1.58-1.58-1.77-3.55a12.26,12.26,0,0,0,1-2.45l3.77-1.26V237.7l-3.77-1.26a12.26,12.26,0,0,0-1-2.45l1.77-3.55-1.58-1.58-1.58-1.58-3.55,1.78a12.42,12.42,0,0,0-2.44-1l-1.26-3.77h-4.47l-1.26,3.77a11.94,11.94,0,0,0-2.44,1l-3.56-1.78-1.58,1.58-1.58,1.58,1.78,3.55a12.26,12.26,0,0,0-1,2.45l-3.77,1.26v4.46Z" transform="translate(-84.56 -69.03)"/><circle class="cls-1" cx="184.84" cy="170.9" r="8.28"/><path class="cls-1" d="M284.35,229.05a7.89,7.89,0,0,0,.39,1.81l-1.67,2.24.89,1.29.89,1.29,2.68-.78a8.45,8.45,0,0,0,1.56,1l.4,2.77L291,239l1.55.28,1.34-2.45a7.86,7.86,0,0,0,1.82-.39l2.23,1.67,1.29-.89,1.29-.89-.78-2.68a8.5,8.5,0,0,0,1-1.56l2.76-.4.29-1.54.28-1.55-2.45-1.34a9.21,9.21,0,0,0-.39-1.82l1.67-2.23-.89-1.29-.9-1.29-2.68.78a8.18,8.18,0,0,0-1.56-1l-.4-2.76-1.54-.28-1.54-.29-1.35,2.45a9.11,9.11,0,0,0-1.81.39L288,218.19l-1.29.89-1.29.9.78,2.68a8.13,8.13,0,0,0-1,1.56l-2.77.4-.28,1.54-.28,1.54Z" transform="translate(-84.56 -69.03)"/><path class="cls-1" d="M287.28,227.09a5.81,5.81,0,1,1,4.68,6.76A5.81,5.81,0,0,1,287.28,227.09Z" transform="translate(-84.56 -69.03)"/><path class="cls-1" d="M438.21,207.65H427.87a5.79,5.79,0,0,0-5.79,5.79v39.91L370.5,239a5,5,0,0,1-3.65-4.81v-11a5,5,0,0,1,5-5h8.64" transform="translate(-84.56 -69.03)"/><path class="cls-1" d="M422.08,253.35v4a3.16,3.16,0,0,1-3.17,3.16H373" transform="translate(-84.56 -69.03)"/><circle class="cls-1" cx="296.21" cy="194.84" r="3.32"/><circle class="cls-1" cx="329.27" cy="194.84" r="3.32"/><path class="cls-1" d="M394.64,216.09,384.52,226.2a4.87,4.87,0,0,0,6.89,6.89L401.52,223Z" transform="translate(-84.56 -69.03)"/><path class="cls-1" d="M395.05,220.49l-7.8,7.79a1.47,1.47,0,1,0,2.08,2.07l7.79-7.79Z" transform="translate(-84.56 -69.03)"/><line class="cls-1" x1="308.08" y1="149.06" x2="314.97" y2="155.94"/><rect class="cls-1" x="405" y="199.91" width="2.42" height="22.99" transform="translate(183.9 -294.34) rotate(45)"/><path class="cls-1" d="M401,214.91l-5.24-5.24a7,7,0,0,0-9.07-8.82l4.64,4.64-1.12,3.73-3.74,1.13-4.64-4.65a7,7,0,0,0,8.82,9.08l2.66,2.66" transform="translate(-84.56 -69.03)"/><path class="cls-1" d="M401.79,225.94l.75.75a7,7,0,0,0,9.08,8.83L407,230.87l1.12-3.73,3.73-1.12,4.65,4.64a7,7,0,0,0-8.83-9.08l-3.16-3.17" transform="translate(-84.56 -69.03)"/><path class="cls-1" d="M682.77,255h15.59a5.09,5.09,0,0,0,5.09-5.1V229.64" transform="translate(-84.56 -69.03)"/><path class="cls-1" d="M703.45,219.18V216.3a5.09,5.09,0,0,0-5.09-5.1h-63a5.09,5.09,0,0,0-5.09,5.1v33.61a5.09,5.09,0,0,0,5.09,5.1h19" transform="translate(-84.56 -69.03)"/><path class="cls-1" d="M679.54,199.86H654.21a4,4,0,0,0-4,4v7.33h33.37v-7.33A4,4,0,0,0,679.54,199.86Z" transform="translate(-84.56 -69.03)"/><path class="cls-1" d="M678.23,235.28,660.41,253.1a8.58,8.58,0,1,0,12.13,12.13l17.82-17.82Z" transform="translate(-84.56 -69.03)"/><path class="cls-1" d="M679,243l-13.72,13.72a2.59,2.59,0,1,0,3.66,3.67l13.72-13.73Z" transform="translate(-84.56 -69.03)"/><line class="cls-1" x1="590.16" y1="169.77" x2="602.29" y2="181.9"/><rect class="cls-1" x="696.48" y="206.78" width="4.27" height="40.5" transform="translate(280.59 -496.53) rotate(45)"/><line class="cls-1" x1="611" y1="164.08" x2="618.89" y2="164.08"/><line class="cls-1" x1="572.51" y1="164.08" x2="592.12" y2="164.08"/><line class="cls-1" x1="545.74" y1="164.08" x2="558.76" y2="164.08"/><rect class="cls-1" x="558.76" y="159.56" width="13.75" height="9.03"/><polyline class="cls-1" points="592.12 167.8 592.12 159.56 605.87 159.56 605.87 163.17"/><line class="cls-1" x1="600.45" y1="168.59" x2="596.01" y2="168.59"/><path class="cls-1" d="M101.66,355.68h0a20.33,20.33,0,0,0,0,28.77l14.21,14.21a20.35,20.35,0,0,0,28.78,0h0a20.33,20.33,0,0,0,0-28.77l-14.21-14.21A20.35,20.35,0,0,0,101.66,355.68Z" transform="translate(-84.56 -69.03)"/><path class="cls-1" d="M114.14,368.15a2.83,2.83,0,0,0,0,4l6.07,6.07a2.83,2.83,0,0,0,4-4l-6.07-6.07A2.84,2.84,0,0,0,114.14,368.15Z" transform="translate(-84.56 -69.03)"/><path class="cls-1" d="M114.14,368.15,101.5,355.52a15.62,15.62,0,0,1,0-22.09h0a15.63,15.63,0,0,1,22.1,0l12.94,12.94a14,14,0,0,0,19.74,0l1.1-1.09" transform="translate(-84.56 -69.03)"/><circle class="cls-1" cx="51.14" cy="320.69" r="2.33"/><path class="cls-1" d="M235.72,381.21v6.4a3.63,3.63,0,0,0,3.64,3.63h62.45a3.63,3.63,0,0,0,3.63-3.63V347.29a3.64,3.64,0,0,0-3.63-3.63H279.27" transform="translate(-84.56 -69.03)"/><path class="cls-1" d="M256.35,343.66h-17a3.64,3.64,0,0,0-3.64,3.63v16.08" transform="translate(-84.56 -69.03)"/><line class="cls-1" x1="151.17" y1="316.77" x2="220.88" y2="316.77"/><line class="cls-1" x1="188.68" y1="279.68" x2="220.88" y2="279.68"/><line class="cls-1" x1="151.17" y1="279.68" x2="165.61" y2="279.68"/><rect class="cls-1" x="180.35" y="322.21" width="11.34" height="8.58"/><path class="cls-1" d="M283.4,399.82H257.76a3.22,3.22,0,0,0-3.22,3.23h32.08A3.22,3.22,0,0,0,283.4,399.82Z" transform="translate(-84.56 -69.03)"/><path class="cls-1" d="M242.83,354.69,222,380.08a3.31,3.31,0,0,0,.22,4.43h0a3.3,3.3,0,0,0,4.42.22l25.39-20.81Z" transform="translate(-84.56 -69.03)"/><polygon class="cls-1" points="167.5 294.9 158.27 285.67 173.29 273.41 179.76 279.88 167.5 294.9"/><path class="cls-1" d="M257.9,342.66a7.42,7.42,0,0,1,3.69-5,13.28,13.28,0,0,1,6.16-1.59c1.64-.07,3.29,0,4.93-.07a9.42,9.42,0,0,0,4.67-1.41,4.87,4.87,0,0,0,2.23-4.16,6.16,6.16,0,0,1,.48,4.16,12.27,12.27,0,0,1-1.7,3.91,24.64,24.64,0,0,1-14.2,10.6" transform="translate(-84.56 -69.03)"/><line class="cls-1" x1="162.4" y1="282.3" x2="170.83" y2="290.73"/><rect class="cls-1" x="195.53" y="285.17" width="19.75" height="8.81" rx="2.14"/><rect class="cls-1" x="172.49" y="298.15" width="42.79" height="13.28" rx="3.21"/><line class="cls-1" x1="190.38" y1="285.17" x2="182.42" y2="285.17"/><line class="cls-1" x1="190.38" y1="289.58" x2="182.42" y2="289.58"/><line class="cls-1" x1="190.38" y1="293.98" x2="182.42" y2="293.98"/><polyline class="cls-1" points="444.4 318.96 417.01 318.96 417.01 265.13 488.2 265.13 488.2 282.84"/><line class="cls-1" x1="460.25" y1="318.97" x2="453.04" y2="318.97"/><polyline class="cls-1" points="488.2 305.75 488.2 318.96 467.87 318.96"/><line class="cls-1" x1="488.2" y1="283.8" x2="488.2" y2="295.54"/><line class="cls-1" x1="417.01" y1="274.18" x2="488.2" y2="274.18"/><path class="cls-1" d="M560.24,338.39a.21.21,0,1,1-.21-.21A.21.21,0,0,1,560.24,338.39Z" transform="translate(-84.56 -69.03)"/><path class="cls-1" d="M564.6,338.39a.2.2,0,0,1-.2.2.2.2,0,0,1-.21-.2.21.21,0,0,1,.21-.21A.2.2,0,0,1,564.6,338.39Z" transform="translate(-84.56 -69.03)"/><path class="cls-1" d="M569,338.39a.2.2,0,0,1-.21.2.2.2,0,0,1-.2-.2.2.2,0,0,1,.2-.21A.21.21,0,0,1,569,338.39Z" transform="translate(-84.56 -69.03)"/><path class="cls-1" d="M517.77,365.58a11.53,11.53,0,0,0,.9,2.17l-1.58,3.17,1.41,1.41,1.41,1.4,3.16-1.58a10.65,10.65,0,0,0,2.18.9l1.12,3.36h4l1.12-3.36a10.21,10.21,0,0,0,2.18-.9l3.17,1.58,1.41-1.4,1.4-1.41-1.58-3.17a10.34,10.34,0,0,0,.9-2.17l3.36-1.13v-4L539,359.35a10.34,10.34,0,0,0-.9-2.17l1.58-3.17-1.4-1.41-1.41-1.4-3.17,1.57a11.35,11.35,0,0,0-2.18-.9l-1.12-3.35h-4l-1.12,3.35a11.91,11.91,0,0,0-2.18.9l-3.16-1.57-1.41,1.4L517.09,354l1.58,3.17a11.53,11.53,0,0,0-.9,2.17l-3.36,1.13v4Z" transform="translate(-84.56 -69.03)"/><circle class="cls-1" cx="528.36" cy="362.46" r="7.37" transform="translate(-194.88 242.14) rotate(-29.86)"/><path class="cls-1" d="M549.91,396.61a9.53,9.53,0,0,0,2.22-9.74l16-16A9.39,9.39,0,0,0,580,358.63l-6.25,6.25-5-1.51-1.51-5,6.25-6.25A9.39,9.39,0,0,0,561.28,364l-16,16a9.39,9.39,0,0,0-11.88,12.22l6.25-6.25,5,1.51,1.52,5-6.25,6.24A9.55,9.55,0,0,0,549.91,396.61Z" transform="translate(-84.56 -69.03)"/><path class="cls-1" d="M653.39,388.47a28.78,28.78,0,1,1,45.38-32.93" transform="translate(-84.56 -69.03)"/><path class="cls-1" d="M700.26,360.1a28.8,28.8,0,0,1-28,35.42,28.69,28.69,0,0,1-15.78-4.71" transform="translate(-84.56 -69.03)"/><path class="cls-1" d="M688.16,370.39c-.88,10.9-5.94,20.16-13,25" transform="translate(-84.56 -69.03)"/><path class="cls-1" d="M674.32,338c7.87,4.89,13.42,15.12,13.94,27.11" transform="translate(-84.56 -69.03)"/><path class="cls-1" d="M660.31,384.74a39.25,39.25,0,0,1-4.1-17.78c0-12.77,5.71-23.8,14-28.93" transform="translate(-84.56 -69.03)"/><path class="cls-1" d="M669.37,395.38a26.93,26.93,0,0,1-7.12-7.33" transform="translate(-84.56 -69.03)"/><path class="cls-1" d="M695.2,349.38a33.66,33.66,0,0,1-8.93,4.83,40.42,40.42,0,0,1-13.76,2.36h-.26a40,40,0,0,1-14-2.54,33.13,33.13,0,0,1-8.79-4.91" transform="translate(-84.56 -69.03)"/><path class="cls-1" d="M677.21,377.16a38.65,38.65,0,0,1,9.2,2.16,33,33,0,0,1,8.8,4.78" transform="translate(-84.56 -69.03)"/><path class="cls-1" d="M649.49,384.36a33,33,0,0,1,8.66-4.87,40.12,40.12,0,0,1,14.1-2.59" transform="translate(-84.56 -69.03)"/><line class="cls-1" x1="587.69" y1="313.26" x2="587.69" y2="326.49"/><line class="cls-1" x1="587.69" y1="268.93" x2="587.69" y2="307.87"/><line class="cls-1" x1="607.24" y1="297.71" x2="616.47" y2="297.71"/><polyline class="cls-1" points="558.91 297.71 571.65 297.71 587.69 297.71 601.75 297.71"/><path class="cls-1" d="M691.2,344.87c8.53-4.25,14.74-5.86,16.28-3.74,2.78,3.83-10.68,18.35-30.07,32.43S640,396,637.26,392.14c-1.28-1.77.91-5.83,5.55-11.08" transform="translate(-84.56 -69.03)"/><path class="cls-1" d="M160.89,478.07H125.13a6.63,6.63,0,0,0-6.63,6.63v23.75a6.62,6.62,0,0,0,6.63,6.62h16l12.66,7.19-2.28-7.19h9.35a6.62,6.62,0,0,0,6.63-6.62V484.7A6.63,6.63,0,0,0,160.89,478.07Z" transform="translate(-84.56 -69.03)"/><path class="cls-1" d="M114.56,502.35h-2.64l-12.66,7.18,2.28-7.18H92.18a6.62,6.62,0,0,1-6.62-6.63V472a6.62,6.62,0,0,1,6.62-6.62H128a6.62,6.62,0,0,1,6.62,6.62v6.1" transform="translate(-84.56 -69.03)"/><line class="cls-1" x1="54.76" y1="418.41" x2="72.79" y2="418.41"/><line class="cls-1" x1="44.11" y1="418.41" x2="48.81" y2="418.41"/><line class="cls-1" x1="67" y1="427.58" x2="72.79" y2="427.58"/><line class="cls-1" x1="44.11" y1="427.58" x2="60.84" y2="427.58"/><line class="cls-1" x1="61.74" y1="436.74" x2="72.79" y2="436.74"/><line class="cls-1" x1="44.11" y1="436.74" x2="55.1" y2="436.74"/><line class="cls-1" x1="29.2" y1="424.93" x2="11.17" y2="424.93"/><line class="cls-1" x1="16.96" y1="415.76" x2="11.17" y2="415.76"/><line class="cls-1" x1="30.62" y1="415.76" x2="23.12" y2="415.76"/><line class="cls-1" x1="22.22" y1="406.6" x2="11.17" y2="406.6"/><line class="cls-1" x1="36.02" y1="406.6" x2="28.86" y2="406.6"/><path class="cls-1" d="M257.79,498.39l-11.25,11.26a5.42,5.42,0,1,0,7.66,7.66l11.26-11.26Z" transform="translate(-84.56 -69.03)"/><path class="cls-1" d="M258.25,503.29,249.58,512a1.63,1.63,0,1,0,2.31,2.31l8.67-8.67Z" transform="translate(-84.56 -69.03)"/><line class="cls-1" x1="171.02" y1="431.58" x2="178.68" y2="439.25"/><rect class="cls-1" x="269.33" y="480.38" width="2.7" height="25.59" transform="translate(343.45 -115.97) rotate(45)"/><path class="cls-1" d="M264.86,497.08,259,491.25a7.77,7.77,0,0,0-10.11-9.82l5.17,5.16-1.25,4.16L248.68,492l-5.16-5.17a7.77,7.77,0,0,0,9.82,10.11l3,2.95" transform="translate(-84.56 -69.03)"/><path class="cls-1" d="M265.76,509.36l.83.83A7.78,7.78,0,0,0,276.7,520l-5.17-5.17,1.25-4.16,4.16-1.25,5.17,5.17a7.78,7.78,0,0,0-9.83-10.11L268.76,501" transform="translate(-84.56 -69.03)"/><polygon class="cls-1" points="217.46 420.21 178.8 388.61 140.15 420.21 149.86 420.21 149.86 460.94 207.74 460.94 207.74 420.21 217.46 420.21"/><circle class="cls-1" cx="327.79" cy="414.95" r="23.94"/><path class="cls-1" d="M394.78,476.39a19.15,19.15,0,0,1,17.57-11.55" transform="translate(-84.56 -69.03)"/><path class="cls-1" d="M393.22,484a19,19,0,0,1,.36-3.73" transform="translate(-84.56 -69.03)"/><path class="cls-1" d="M388.86,502l-19,19a3.89,3.89,0,0,0,5.5,5.49l19-19Z" transform="translate(-84.56 -69.03)"/><line class="cls-1" x1="301.55" y1="435.7" x2="307.05" y2="441.19"/><line class="cls-1" x1="307.05" y1="435.7" x2="310.86" y2="431.88"/><path class="cls-1" d="M409.53,474.4l2.82,15.47,2.82-15.47a2.87,2.87,0,0,0-2.82-3.38h0A2.87,2.87,0,0,0,409.53,474.4Z" transform="translate(-84.56 -69.03)"/><circle class="cls-1" cx="327.79" cy="426.25" r="1.98"/><path class="cls-1" d="M554.09,459.05H505.31a6,6,0,0,0-6,6v13.19a6,6,0,0,0,6,6h48.78Z" transform="translate(-84.56 -69.03)"/><rect class="cls-1" x="469.53" y="394.73" width="13.9" height="15.77"/><line class="cls-1" x1="476.48" y1="399.27" x2="476.48" y2="400.29"/><line class="cls-1" x1="476.48" y1="404.93" x2="476.48" y2="405.95"/><line class="cls-1" x1="463.3" y1="402.61" x2="424.16" y2="402.61"/><rect class="cls-1" x="414.76" y="424.86" width="68.67" height="20.89"/><path class="cls-1" d="M559.44,504.33a2.91,2.91,0,1,1-2.91-2.91A2.91,2.91,0,0,1,559.44,504.33Z" transform="translate(-84.56 -69.03)"/><line class="cls-1" x1="421.74" y1="435.3" x2="429" y2="435.3"/><line class="cls-1" x1="436.82" y1="435.3" x2="444.08" y2="435.3"/><circle class="cls-1" cx="449.09" cy="455.98" r="3.55"/><line class="cls-1" x1="449.09" y1="452.43" x2="449.09" y2="445.74"/><line class="cls-1" x1="445.54" y1="455.98" x2="414.76" y2="455.98"/><line class="cls-1" x1="452.64" y1="455.98" x2="483.43" y2="455.98"/><polygon class="cls-1" points="589.18 392.83 553.19 392.83 553.19 456.72 598.82 456.72 598.82 402.46 589.18 392.83"/><polygon class="cls-1" points="598.82 402.46 589.18 402.46 589.18 392.83 598.82 402.46"/><polyline class="cls-1" points="566.7 410.58 566.7 411.99 560.35 411.99 560.35 405.65 566.7 405.65 566.7 407.22"/><line class="cls-1" x1="572.1" y1="408.82" x2="591.66" y2="408.82"/><polyline class="cls-1" points="561.92 407.69 564.07 409.84 569.59 404.32"/><polyline class="cls-1" points="566.7 427.2 566.7 428.61 560.35 428.61 560.35 422.27 566.7 422.27 566.7 423.84"/><line class="cls-1" x1="572.1" y1="425.44" x2="591.66" y2="425.44"/><polyline class="cls-1" points="561.92 424.31 564.07 426.46 569.59 420.94"/><polyline class="cls-1" points="566.7 443.82 566.7 445.23 560.35 445.23 560.35 438.89 566.7 438.89 566.7 440.46"/><line class="cls-1" x1="572.1" y1="442.06" x2="591.66" y2="442.06"/><polyline class="cls-1" points="561.92 440.93 564.07 443.08 569.59 437.56"/><path class="cls-1" d="M699.75,461.86l-7.24,13.29v43.36a7.24,7.24,0,0,0,7.24,7.24h0a7.25,7.25,0,0,0,7.25-7.24V475.15Z" transform="translate(-84.56 -69.03)"/><line class="cls-1" x1="607.95" y1="406.12" x2="622.44" y2="406.12"/><line class="cls-1" x1="612.84" y1="397.15" x2="617.55" y2="397.15"/><line class="cls-1" x1="607.95" y1="444.33" x2="622.44" y2="444.33"/><rect class="cls-1" x="612.84" y="406.12" width="4.71" height="38.21"/><line class="cls-1" x1="607.95" y1="449.48" x2="622.44" y2="449.48"/></svg>